<svg aria-hidden="true" style="position: absolute; width: 0; height: 0; overflow: hidden;" version="1.1" xmlns="http://www.w3.org/2000/svg" xmlns:xlink="http://www.w3.org/1999/xlink">
<defs>
<symbol id="icon-chocolate-1" viewBox="0 0 32 32">
<path fill="#fcf1e0" style="fill: var(--color1, #fcf1e0)" d="M4.315 20.464l11.333-18.667 9.333 5.333-0.667 4.667 2 2-8.667 15.333-13.333-8.667z"></path>
<path fill="none" stroke="#fd9222" style="stroke: var(--color2, #fd9222)" stroke-linejoin="round" stroke-linecap="round" stroke-miterlimit="4" stroke-width="2.6667" d="M20.369 22.715l-13.568-8.48M10.735 7.784l13.568 8.48M9.652 24.925l11.801-19.352M25.943 13.576c-2.907-1.817-4.033-3.264-2.067-6.489l-9.209-5.753-11.799 19.353 13.569 8.48 9.504-15.592z"></path>
</symbol>
<symbol id="icon-twitter-1" viewBox="0 0 32 32">
<path d="M29.333 7.899c-0.917 0.411-1.98 0.714-3.094 0.857l-0.057 0.006c1.133-0.68 1.985-1.732 2.394-2.983l0.011-0.038c-0.998 0.603-2.159 1.062-3.397 1.312l-0.070 0.012c-1-1.067-2.418-1.733-3.992-1.733-3.018 0-5.465 2.447-5.465 5.465 0 0.002 0 0.004 0 0.006v-0c0 0.432 0.037 0.849 0.128 1.245-4.545-0.221-8.567-2.4-11.268-5.717-0.47 0.791-0.748 1.744-0.751 2.762v0.001c0 1.893 0.976 3.572 2.428 4.543-0.909-0.025-1.756-0.272-2.495-0.687l0.027 0.014v0.061c0.004 2.636 1.864 4.837 4.344 5.364l0.036 0.006c-0.417 0.114-0.896 0.18-1.39 0.18-0.015 0-0.030-0-0.045-0h0.002c-0.351 0-0.703-0.020-1.035-0.093 0.708 2.165 2.717 3.757 5.108 3.809-1.845 1.453-4.203 2.331-6.765 2.331-0.005 0-0.009 0-0.014 0h0.001c-0.022 0-0.047 0-0.072 0-0.435 0-0.865-0.027-1.286-0.080l0.050 0.005c2.355 1.538 5.239 2.453 8.337 2.453 0.018 0 0.035-0 0.053-0h-0.003c10.060 0 15.56-8.333 15.56-15.557 0-0.24-0.008-0.475-0.020-0.707 1.082-0.78 1.992-1.72 2.715-2.797l0.025-0.039z"></path>
</symbol>
<symbol id="icon-instagram-1" viewBox="0 0 32 32">
<path d="M28.717 10.756c-0.016-1.134-0.233-2.213-0.617-3.209l0.021 0.063c-0.681-1.722-2.020-3.059-3.698-3.722l-0.044-0.015c-0.92-0.356-1.985-0.572-3.097-0.596l-0.010-0c-1.368-0.060-1.801-0.077-5.273-0.077s-3.916 0-5.275 0.077c-1.122 0.024-2.186 0.24-3.171 0.618l0.064-0.022c-1.723 0.678-3.062 2.015-3.727 3.693l-0.015 0.044c-0.357 0.919-0.573 1.982-0.595 3.092l-0 0.009c-0.061 1.367-0.080 1.8-0.080 5.265 0 3.467 0 3.908 0.080 5.265 0.022 1.121 0.239 2.184 0.616 3.168l-0.022-0.064c0.682 1.721 2.022 3.057 3.701 3.719l0.044 0.015c0.917 0.37 1.98 0.602 3.091 0.64l0.016 0c1.368 0.060 1.801 0.079 5.273 0.079s3.916 0 5.275-0.080c1.122-0.023 2.186-0.239 3.171-0.616l-0.064 0.022c1.723-0.679 3.061-2.015 3.728-3.692l0.016-0.044c0.356-0.92 0.573-1.983 0.595-3.095l0-0.009c0.061-1.365 0.080-1.799 0.080-5.267-0.003-3.465-0.003-3.904-0.083-5.263zM15.989 22.531c-0.002 0-0.003 0-0.005 0-3.624 0-6.562-2.936-6.565-6.56v-0c0.002-3.624 2.941-6.561 6.565-6.561 0.002 0 0.004 0 0.006 0h-0c0.002 0 0.004 0 0.007 0 3.624 0 6.563 2.936 6.567 6.56v0c-0.003 3.624-2.942 6.561-6.567 6.561-0.002 0-0.005 0-0.007 0h0zM22.824 10.696c-0.845 0-1.53-0.685-1.53-1.53s0.685-1.53 1.53-1.53v0c0.845 0 1.53 0.685 1.53 1.53s-0.685 1.53-1.53 1.53v0z"></path>
<path d="M15.992 19.976c2.211 0 4.004-1.793 4.004-4.004s-1.793-4.004-4.004-4.004v0c-2.211 0-4.004 1.793-4.004 4.004s1.793 4.004 4.004 4.004v0z"></path>
</symbol>
<symbol id="icon-facebook-1" viewBox="0 0 32 32">
<path d="M19.52 4.64h0.96v3.6h-1.2c-0.48 0-0.96 0-1.2 0.24s-0.24 0.48-0.24 1.040v1.28h2.64v3.040h-2.64v13.2h-4.080v-13.28h-2.16v-3.040h2.16v-1.040c0-1.76 0.24-3.040 0.72-3.6 0.72-1.040 2.16-1.52 4.32-1.52 0.24 0.080 0.48 0.080 0.72 0.080z"></path>
</symbol>
<symbol id="icon-chocolate-2-1" viewBox="0 0 32 32">
<path fill="#111" style="fill: var(--color1, #111)" d="M13.822 2.413l7.528 7.537 0.080-0.080c0.154-0.151 0.366-0.244 0.599-0.244 0.227 0 0.433 0.088 0.586 0.232l-0-0 0.873 0.873c0.305 0.304 0.316 0.77 0.084 1.093l-0.005 0.008-0.143 0.192 6.16 6.16c0.55 0.55 0.55 1.43 0 1.98l-9.43 9.43c-0.55 0.55-1.43 0.55-1.98 0l-4.447-4.448c-0.156 0.195-0.393 0.318-0.66 0.318-0.232 0-0.443-0.094-0.595-0.246l-2.6-2.6c-0.151-0.154-0.244-0.366-0.244-0.599 0-0.227 0.088-0.433 0.232-0.586l-0 0 0.006-0.008 0.077-0.076-7.527-7.527c-0.55-0.55-0.55-1.43 0-1.98l9.43-9.43c0.55-0.55 1.43-0.55 1.98 0v0.002zM20.404 10.893l-1.756-1.755c-0.108-0.111-0.258-0.18-0.425-0.18s-0.317 0.069-0.425 0.18l-3.58 3.58c-0.11 0.11-0.179 0.262-0.179 0.43s0.068 0.32 0.179 0.43l1.75 1.75 0.61-0.61-1.566-1.566 3.21-3.22 1.57 1.575 0.612-0.614zM15.329 15.965l-1.755-1.754c-0.108-0.111-0.258-0.18-0.425-0.18s-0.317 0.069-0.425 0.18l-3.59 3.591c-0.24 0.23-0.24 0.61 0 0.85l1.752 1.752 0.617-0.616-1.57-1.564 3.22-3.21 1.563 1.563 0.613-0.612zM8.822 8.195l3.58 3.58c0.24 0.24 0.62 0.24 0.85-0.010l3.58-3.58c0.111-0.106 0.18-0.255 0.18-0.42 0-0 0-0 0-0v0h0.010c0-0.15-0.060-0.31-0.18-0.43l-3.58-3.58c-0.11-0.111-0.262-0.179-0.43-0.179s-0.32 0.069-0.43 0.179l-0 0-3.58 3.59c-0.24 0.23-0.24 0.61 0 0.85zM3.752 13.265l3.58 3.58c0.24 0.24 0.62 0.24 0.85 0l3.58-3.58c0.111-0.106 0.18-0.255 0.18-0.42 0-0.004-0-0.007-0-0.010v0.001h0.010c0-0.16-0.060-0.31-0.18-0.43l-3.58-3.58c-0.108-0.111-0.258-0.18-0.425-0.18s-0.317 0.069-0.425 0.18l-3.59 3.59c-0.24 0.23-0.24 0.61 0 0.85zM10.685 22.018l2.362 2.364 9.636-13.040-0.654-0.655-11.344 11.331z"></path>
<path fill="#fd9222" style="fill: var(--color2, #fd9222)" d="M13.822 2.413l7.528 7.537 0.080-0.080c0.154-0.151 0.366-0.244 0.599-0.244 0.227 0 0.433 0.088 0.586 0.232l-0-0 0.873 0.873c0.305 0.304 0.316 0.77 0.084 1.093l-0.005 0.008-0.143 0.192 6.16 6.16c0.55 0.55 0.55 1.43 0 1.98l-9.43 9.43c-0.55 0.55-1.43 0.55-1.98 0l-4.447-4.448c-0.156 0.195-0.393 0.318-0.66 0.318-0.232 0-0.443-0.094-0.595-0.246l-2.6-2.6c-0.151-0.154-0.244-0.366-0.244-0.599 0-0.227 0.088-0.433 0.232-0.586l-0 0 0.006-0.008 0.077-0.076-7.527-7.527c-0.55-0.55-0.55-1.43 0-1.98l9.43-9.43c0.55-0.55 1.43-0.55 1.98 0v0.002zM20.404 10.893l-1.756-1.755c-0.108-0.111-0.258-0.18-0.425-0.18s-0.317 0.069-0.425 0.18l-3.58 3.58c-0.11 0.11-0.179 0.262-0.179 0.43s0.068 0.32 0.179 0.43l1.75 1.75 0.61-0.61-1.566-1.566 3.21-3.22 1.57 1.575 0.612-0.614zM15.329 15.965l-1.755-1.754c-0.108-0.111-0.258-0.18-0.425-0.18s-0.317 0.069-0.425 0.18l-3.59 3.591c-0.24 0.23-0.24 0.61 0 0.85l1.752 1.752 0.617-0.616-1.57-1.564 3.22-3.21 1.563 1.563 0.613-0.612zM8.822 8.195l3.58 3.58c0.24 0.24 0.62 0.24 0.85-0.010l3.58-3.58c0.111-0.106 0.18-0.255 0.18-0.42 0-0 0-0 0-0v0h0.010c0-0.15-0.060-0.31-0.18-0.43l-3.58-3.58c-0.11-0.111-0.262-0.179-0.43-0.179s-0.32 0.069-0.43 0.179l-0 0-3.58 3.59c-0.24 0.23-0.24 0.61 0 0.85zM3.752 13.265l3.58 3.58c0.24 0.24 0.62 0.24 0.85 0l3.58-3.58c0.111-0.106 0.18-0.255 0.18-0.42 0-0.004-0-0.007-0-0.010v0.001h0.010c0-0.16-0.060-0.31-0.18-0.43l-3.58-3.58c-0.108-0.111-0.258-0.18-0.425-0.18s-0.317 0.069-0.425 0.18l-3.59 3.59c-0.24 0.23-0.24 0.61 0 0.85zM10.685 22.018l2.362 2.364 9.636-13.040-0.654-0.655-11.344 11.331z"></path>
</symbol>
<symbol id="icon-coin-1" viewBox="0 0 32 32">
<path fill="#fd9222" style="fill: var(--color2, #fd9222)" d="M16 2.667c-7.333 0-13.333 6-13.333 13.333s6 13.333 13.333 13.333 13.333-6 13.333-13.333-6-13.333-13.333-13.333zM16 26.667c-5.867 0-10.667-4.8-10.667-10.667s4.8-10.667 10.667-10.667 10.667 4.8 10.667 10.667-4.8 10.667-10.667 10.667z"></path>
<path fill="#fd9222" style="fill: var(--color2, #fd9222)" d="M17.733 14.667h-3.466c-0.667 0-1.2-0.534-1.2-1.2 0-0.667 0.533-1.2 1.2-1.2h4.933c0.8 0 1.333-0.534 1.333-1.334s-0.533-1.333-1.333-1.333h-1.867v-1.2c0-0.8-0.533-1.333-1.333-1.333s-1.333 0.533-1.333 1.333v1.2h-0.4c-2.135 0.002-3.865 1.732-3.867 3.867v0c0.002 2.135 1.732 3.864 3.867 3.866h3.333c0.667 0 1.2 0.534 1.2 1.2 0 0.667-0.533 1.2-1.2 1.2h-4.933c-0.8 0-1.334 0.534-1.334 1.334s0.534 1.333 1.334 1.333h2v1.2c0 0.8 0.533 1.333 1.333 1.333s1.333-0.533 1.333-1.333v-1.2h0.4c2.135-0.002 3.865-1.732 3.867-3.867v-0c-0.002-2.135-1.732-3.864-3.867-3.866h-0z"></path>
</symbol>
<symbol id="icon-spoon-1" viewBox="0 0 32 32">
<path fill="#fd9222" style="fill: var(--color2, #fd9222)" d="M15.451 14.106c-0.732-0.884-1.176-2.029-1.176-3.278 0-0.001 0-0.003 0-0.004v0c0-4.324 5.181-8.642 10.362-8.642 2.861 0.001 5.18 2.321 5.181 5.182v0c0 5.182-4.317 10.364-8.646 10.364-0.001 0-0.002 0-0.003 0-1.249 0-2.395-0.444-3.287-1.184l0.009 0.007-12.758 12.761c-0.308 0.287-0.723 0.463-1.178 0.463-0.955 0-1.73-0.775-1.73-1.73 0-0.456 0.176-0.87 0.464-1.179l-0.001 0.001 12.764-12.761z"></path>
</symbol>
<symbol id="icon-arrw" viewBox="0 0 32 32">
<path fill="none" stroke="#fafafa" style="stroke: var(--color1, #fafafa)" stroke-linejoin="round" stroke-linecap="round" stroke-miterlimit="4" stroke-width="1.3333" d="M9.143 16h13.715M22.857 16l-3.431-3.428M22.857 16l-3.429 3.428M16 30.857c8.205 0 14.857-6.652 14.857-14.857s-6.652-14.857-14.857-14.857c-8.205 0-14.857 6.652-14.857 14.857s6.652 14.857 14.857 14.857z"></path>
</symbol>
<symbol id="icon-arro" viewBox="0 0 32 32">
<path fill="none" stroke="#fd9222" style="stroke: var(--color1, #fd9222)" stroke-linejoin="round" stroke-linecap="round" stroke-miterlimit="4" stroke-width="1.3333" d="M9.143 16h13.715M22.857 16l-3.431-3.428M22.857 16l-3.429 3.428M16 30.857c8.205 0 14.857-6.652 14.857-14.857s-6.652-14.857-14.857-14.857c-8.205 0-14.857 6.652-14.857 14.857s6.652 14.857 14.857 14.857z"></path>
</symbol>
<symbol id="scroll" viewBox="0 0 32 32">
<path d="M16.947 17.867c-0.124 0.125-0.271 0.224-0.434 0.292s-0.337 0.103-0.513 0.103c-0.176 0-0.35-0.035-0.513-0.103s-0.31-0.167-0.434-0.292l-6.107-6.12c-0.124-0.125-0.271-0.224-0.434-0.292s-0.337-0.103-0.513-0.103c-0.176 0-0.35 0.035-0.513 0.103s-0.31 0.167-0.434 0.292c-0.248 0.25-0.388 0.588-0.388 0.94s0.139 0.69 0.388 0.94l6.12 6.12c0.75 0.749 1.767 1.17 2.827 1.17s2.077-0.421 2.827-1.17l6.12-6.12c0.246-0.248 0.385-0.584 0.387-0.933 0.001-0.175-0.033-0.349-0.099-0.512s-0.164-0.31-0.288-0.435c-0.124-0.125-0.271-0.224-0.434-0.292s-0.337-0.103-0.513-0.103-0.35 0.035-0.513 0.103c-0.162 0.068-0.31 0.167-0.434 0.292l-6.107 6.12z"></path>
</symbol>
<symbol id="ukraine-flag" viewBox="0 0 43 32">
<path fill="#FFD700" style="fill: var(--color4, #FFD700)" d="M42.443 0.523h-42.119v31.344h42.119v-31.344z"></path>
<path fill="#0057B7" style="fill: var(--color5, #0057B7)" d="M0.324 0.523h42.119v15.672h-42.119v-15.672z"></path>
</symbol>
<symbol id="icon-icon-v" viewBox="0 0 32 32">
<path fill="#fff" style="fill: var(--color1, #fff)" d="M12.637 31.213c1.395 0 2.448-0.534 3.162-1.606l15.45-23.28c0.256-0.381 0.448-0.752 0.566-1.12 0.125-0.381 0.186-0.742 0.186-1.088 0-0.96-0.336-1.754-1.005-2.378-0.608-0.591-1.438-0.955-2.354-0.955-0.031 0-0.062 0-0.092 0.001l0.005-0c-0.672 0-1.238 0.134-1.709 0.4-0.458 0.256-0.893 0.704-1.306 1.341l-12.97 20.368-6.496-7.782c-0.618-0.749-1.547-1.223-2.587-1.223-0.020 0-0.040 0-0.059 0.001l0.003-0c-0.992 0-1.811 0.32-2.461 0.954-0.599 0.585-0.971 1.4-0.971 2.303 0 0.032 0 0.064 0.001 0.096l-0-0.005c0 0.435 0.064 0.848 0.202 1.238 0.144 0.381 0.406 0.774 0.787 1.187l8.618 10.16c0.794 0.928 1.802 1.389 3.030 1.389z"></path>
</symbol>
<symbol id="icon-x" viewBox="0 0 32 32">
<path d="M32 3.224l-3.224-3.224-12.776 12.776-12.776-12.776-3.224 3.224 12.776 12.776-12.776 12.776 3.224 3.224 12.776-12.776 12.776 12.776 3.224-3.224-12.776-12.776 12.776-12.776z"></path>
</symbol>
<symbol id="icon-arrow123" viewBox="0 0 32 32">
<path  stroke="#fafafa" style="stroke: var(--color1, #fafafa)" stroke-linejoin="round" stroke-linecap="round" stroke-miterlimit="4" stroke-width="1.3333" d="M9.143 16h13.714M22.857 16l-3.429-3.429M22.857 16l-3.429 3.429"></path>
<path  stroke="#fafafa" style="stroke: var(--color1, #fafafa)" stroke-linejoin="round" stroke-linecap="round" stroke-miterlimit="4" stroke-width="1.3333" d="M16 30.857c8.205 0 14.857-6.652 14.857-14.857s-6.652-14.857-14.857-14.857c-8.205 0-14.857 6.652-14.857 14.857s6.652 14.857 14.857 14.857z"></path>
</symbol>
<symbol id="icon-modal-user" viewBox="0 0 32 32">
<path stroke-linejoin="round" stroke-linecap="round" stroke-miterlimit="4" stroke-width="2.6667" d="M26.667 28v-2.667c0-2.946-2.388-5.333-5.333-5.333v0h-10.667c-2.946 0-5.333 2.388-5.333 5.333v0 2.667M16 14.667c2.946 0 5.333-2.388 5.333-5.333s-2.388-5.333-5.333-5.333v0c-2.946 0-5.333 2.388-5.333 5.333s2.388 5.333 5.333 5.333v0z"></path>
</symbol>
<symbol id="icon-modal-mail" viewBox="0 0 32 32">
<path stroke-linejoin="round" stroke-linecap="round" stroke-miterlimit="4" stroke-width="2.6667" d="M5.333 5.333h21.333c1.467 0 2.667 1.2 2.667 2.667v16c0 1.467-1.2 2.667-2.667 2.667h-21.333c-1.467 0-2.667-1.2-2.667-2.667v-16c0-1.467 1.2-2.667 2.667-2.667z"></path>
<path stroke-linejoin="round" stroke-linecap="round" stroke-miterlimit="4" stroke-width="2.6667" d="M29.333 8l-13.333 9.333-13.333-9.333"></path>
</symbol>
<symbol id="icon-modal-phone" viewBox="0 0 32 32">
<path stroke-linejoin="round" stroke-linecap="round" stroke-miterlimit="4" stroke-width="2.6667" d="M29.333 22.56v4c0 0.002 0 0.005 0 0.008 0 1.474-1.195 2.669-2.669 2.669-0.084 0-0.166-0.004-0.248-0.011l0.010 0.001c-4.327-0.482-8.236-1.943-11.607-4.155l0.1 0.062c-3.242-2.081-5.919-4.758-7.938-7.897l-0.062-0.103c-2.158-3.286-3.62-7.214-4.083-11.442l-0.010-0.118c-0.007-0.072-0.011-0.155-0.011-0.24 0-1.472 1.192-2.665 2.664-2.667h4c0.008-0 0.017-0 0.026-0 1.341 0 2.451 0.99 2.639 2.279l0.002 0.014c0.169 1.28 0.483 2.537 0.933 3.747 0.108 0.279 0.171 0.601 0.171 0.938 0 0.731-0.294 1.394-0.771 1.875l-1.693 1.693c1.932 3.356 4.644 6.068 7.897 7.945l0.103 0.055 1.693-1.693c0.481-0.476 1.144-0.771 1.875-0.771 0.337 0 0.66 0.063 0.957 0.177l-0.018-0.006c1.209 0.451 2.467 0.764 3.747 0.933 1.304 0.189 2.294 1.299 2.294 2.641 0 0.023-0 0.046-0.001 0.070l0-0.003z"></path>
</symbol>
<symbol id="icon-svg-mail" viewBox="0 0 43 32">
<path d="M37.333 0h-32c-2.2 0-3.981 1.8-3.981 4l-0.019 24c0 2.2 1.8 4 4 4h32c2.2 0 4-1.8 4-4v-24c0-2.2-1.8-4-4-4zM36.533 8.501l-14.139 8.837c-0.302 0.188-0.668 0.3-1.060 0.3s-0.758-0.112-1.069-0.305l0.009 0.005-14.141-8.84c-0.503-0.301-0.835-0.843-0.835-1.463 0-0.938 0.761-1.699 1.699-1.699 0.349 0 0.673 0.105 0.943 0.285l-0.006-0.004 13.4 8.381 13.4-8.381c0.264-0.176 0.588-0.282 0.937-0.282 0.938 0 1.699 0.761 1.699 1.699 0 0.62-0.332 1.162-0.828 1.459l-0.008 0.004z"></path>
</symbol>
<symbol id="icon-Vector-4-1" viewBox="0 0 32 32">
<path  d="M14.4 20.8h3.2v3.2h-3.2v-3.2zM14.4 8h3.2v9.6h-3.2v-9.6zM15.984 0c-8.832 0-15.984 7.168-15.984 16s7.152 16 15.984 16c8.848 0 16.016-7.168 16.016-16s-7.168-16-16.016-16zM16 28.8c-7.072 0-12.8-5.728-12.8-12.8s5.728-12.8 12.8-12.8 12.8 5.728 12.8 12.8-5.728 12.8-12.8 12.8z"></path>
</symbol>
<symbol id="icon-vector" viewBox="0 0 56 32">
<path  d="M30.6 21.136c-0.664 0.669-1.584 1.082-2.6 1.082s-1.936-0.414-2.6-1.082l-0-0-16.8-16.832c-0.672-0.725-1.629-1.177-2.692-1.177-2.026 0-3.668 1.642-3.668 3.668 0 1.055 0.445 2.006 1.158 2.675l0.002 0.002 16.828 16.832c1.99 1.987 4.738 3.216 7.772 3.216s5.782-1.229 7.772-3.216l16.832-16.828c0.659-0.663 1.066-1.577 1.066-2.586 0-2.027-1.643-3.67-3.67-3.67-1.018 0-1.939 0.414-2.604 1.084l-0 0-16.792 16.828z"></path>
</symbol>
</defs>
</svg>
