<svg aria-hidden="true" style="position: absolute; width: 0; height: 0; overflow: hidden;" version="1.1" xmlns="http://www.w3.org/2000/svg" xmlns:xlink="http://www.w3.org/1999/xlink">
<defs>
<symbol id="icon-facebook-1" viewBox="0 0 32 32">
<path fill="none" stroke="#111" style="stroke: var(--color1, #111)" stroke-linejoin="miter" stroke-linecap="butt" stroke-miterlimit="4" stroke-width="0.8" d="M8 0.4h16c4.197 0 7.6 3.403 7.6 7.6v16c0 4.197-3.403 7.6-7.6 7.6h-16c-4.197 0-7.6-3.403-7.6-7.6v-16c0-4.197 3.403-7.6 7.6-7.6z"></path>
<path d="M18.112 9.184h0.576v2.16h-0.72c-0.288 0-0.576 0-0.72 0.144s-0.144 0.288-0.144 0.624v0.768h1.584v1.824h-1.584v7.92h-2.448v-7.968h-1.296v-1.824h1.296v-0.624c0-1.056 0.144-1.824 0.432-2.16 0.432-0.624 1.296-0.912 2.592-0.912 0.144 0.048 0.288 0.048 0.432 0.048z"></path>
</symbol>
<symbol id="icon-instagram-1" viewBox="0 0 32 32">
<path fill="none" stroke="#111" style="stroke: var(--color1, #111)" stroke-linejoin="miter" stroke-linecap="butt" stroke-miterlimit="4" stroke-width="0.8" d="M8 0.4h16c4.197 0 7.6 3.403 7.6 7.6v16c0 4.197-3.403 7.6-7.6 7.6h-16c-4.197 0-7.6-3.403-7.6-7.6v-16c0-4.197 3.403-7.6 7.6-7.6z"></path>
<path d="M23.63 12.854c-0.009-0.68-0.14-1.328-0.37-1.925l0.013 0.038c-0.409-1.033-1.212-1.835-2.219-2.233l-0.027-0.009c-0.552-0.213-1.191-0.343-1.858-0.357l-0.006-0c-0.821-0.036-1.081-0.046-3.164-0.046s-2.35 0-3.165 0.046c-0.673 0.014-1.312 0.144-1.903 0.371l0.039-0.013c-1.034 0.407-1.837 1.209-2.236 2.216l-0.009 0.027c-0.214 0.551-0.344 1.189-0.357 1.855l-0 0.005c-0.037 0.82-0.048 1.080-0.048 3.159s0 2.345 0.048 3.159c0.013 0.672 0.143 1.311 0.37 1.901l-0.013-0.038c0.409 1.033 1.213 1.834 2.221 2.232l0.027 0.009c0.55 0.222 1.188 0.361 1.855 0.384l0.009 0c0.821 0.036 1.081 0.047 3.164 0.047s2.35 0 3.165-0.048c0.673-0.014 1.312-0.143 1.903-0.37l-0.039 0.013c1.034-0.407 1.837-1.209 2.237-2.215l0.009-0.027c0.214-0.552 0.344-1.19 0.357-1.857l0-0.006c0.037-0.819 0.048-1.079 0.048-3.16-0.002-2.078-0.002-2.342-0.050-3.158zM15.994 19.918c-0.001 0-0.003 0-0.004 0-2.174 0-3.937-1.762-3.939-3.936v-0c0.001-2.175 1.764-3.937 3.939-3.937 0.002 0 0.003 0 0.005 0h-0c0.001 0 0.002 0 0.003 0 2.175 0 3.938 1.762 3.94 3.936v0c-0.002 2.175-1.765 3.937-3.94 3.937-0.001 0-0.003 0-0.004 0h0zM20.094 12.818c-0.507 0-0.918-0.411-0.918-0.918s0.411-0.918 0.918-0.918v0c0.507 0 0.918 0.411 0.918 0.918s-0.411 0.918-0.918 0.918v0z"></path>
<path d="M15.995 18.386c1.327 0 2.402-1.076 2.402-2.402s-1.076-2.402-2.402-2.402v0c-1.327 0-2.402 1.076-2.402 2.402s1.076 2.402 2.402 2.402v0z"></path>
</symbol>
<symbol id="icon-twitter-1" viewBox="0 0 32 32">
<path fill="none" stroke="#111" style="stroke: var(--color1, #111)" stroke-linejoin="miter" stroke-linecap="butt" stroke-miterlimit="4" stroke-width="0.8" d="M8 0.4h16c4.197 0 7.6 3.403 7.6 7.6v16c0 4.197-3.403 7.6-7.6 7.6h-16c-4.197 0-7.6-3.403-7.6-7.6v-16c0-4.197 3.403-7.6 7.6-7.6z"></path>
<path d="M24 11.139c-0.55 0.247-1.188 0.429-1.856 0.514l-0.034 0.004c0.68-0.408 1.191-1.039 1.437-1.79l0.007-0.023c-0.599 0.361-1.296 0.637-2.038 0.787l-0.042 0.007c-0.6-0.64-1.451-1.040-2.395-1.040-1.811 0-3.279 1.468-3.279 3.279 0 0.001 0 0.002 0 0.004v-0c0 0.26 0.022 0.51 0.077 0.748-2.727-0.133-5.14-1.44-6.762-3.431-0.281 0.475-0.448 1.047-0.448 1.658v0c0 1.136 0.584 2.143 1.456 2.726-0.546-0.015-1.054-0.163-1.498-0.412l0.016 0.008v0.036c0.001 1.582 1.118 2.904 2.606 3.22l0.022 0.004c-0.249 0.068-0.536 0.107-0.831 0.107-0.010 0-0.020-0-0.030-0h0.002c-0.015 0-0.034 0-0.052 0-0.201 0-0.398-0.021-0.588-0.060l0.019 0.003c0.425 1.299 1.631 2.254 3.065 2.286-1.107 0.872-2.522 1.398-4.059 1.398-0.003 0-0.006 0-0.008 0h0c-0.013 0-0.028 0-0.043 0-0.261 0-0.519-0.016-0.771-0.048l0.030 0.003c1.413 0.923 3.143 1.472 5.002 1.472 0.011 0 0.021-0 0.032-0h-0.002c6.036 0 9.336-5 9.336-9.334 0-0.144-0.005-0.285-0.012-0.424 0.649-0.468 1.195-1.033 1.629-1.679l0.015-0.024z"></path>
</symbol>
</defs>
</svg>
